{
    "asset" : {
        "generator" : "Khronos glTF Blender I/O v1.6.16",
        "version" : "2.0"
    },
    "extensionsUsed" : [
        "KHR_lights_punctual"
    ],
    "extensionsRequired" : [
        "KHR_lights_punctual"
    ],
    "extensions" : {
        "KHR_lights_punctual" : {
            "lights" : [
                {
                    "color" : [
                        1,
                        1,
                        1
                    ],
                    "intensity" : 785.8999633789062,
                    "spot" : {
                        "innerConeAngle" : 0.07801796713664544,
                        "outerConeAngle" : 0.7609635591506958
                    },
                    "type" : "spot",
                    "range" : 0.44000211358070374,
                    "name" : "Spot"
                }
            ]
        }
    },
    "scene" : 0,
    "scenes" : [
        {
            "extras" : {
                "glTF2ExportSettings" : {
                    "export_all_influences" : 1,
                    "export_apply" : 1,
                    "export_cameras" : 0,
                    "export_copyright" : "",
                    "export_current_frame" : 1,
                    "export_def_bones" : 1,
                    "export_extras" : 1,
                    "export_format" : "GLTF_EMBEDDED",
                    "export_lights" : 1,
                    "export_morph_tangent" : 1,
                    "export_tangents" : 1,
                    "export_texture_dir" : "aaa",
                    "use_active_collection" : 1,
                    "use_mesh_edges" : 1,
                    "use_mesh_vertices" : 1,
                    "use_renderable" : 1,
                    "use_selection" : 1,
                    "use_visible" : 1
                }
            },
            "name" : "Scene",
            "nodes" : [
                0,
                3,
                5
            ]
        }
    ],
    "nodes" : [
        {
            "name" : "Camera",
            "rotation" : [
                0.483536034822464,
                0.33687159419059753,
                -0.20870360732078552,
                0.7804827094078064
            ],
            "translation" : [
                7.358891487121582,
                4.958309173583984,
                6.925790786743164
            ]
        },
        {
            "mesh" : 0,
            "name" : "eye_low_L.001_eyeball_mesh.001",
            "rotation" : [
                0,
                0.016355736181139946,
                0,
                0.999866247177124
            ],
            "translation" : [
                -0.07044068723917007,
                0,
                -0.15859052538871765
            ]
        },
        {
            "mesh" : 1,
            "name" : "eye_low_L.001_eyeball_mesh.004",
            "translation" : [
                -0.005262430757284164,
                0,
                -0.16080959141254425
            ]
        },
        {
            "children" : [
                1,
                2
            ],
            "mesh" : 2,
            "name" : "man_body_0014_uv_map_man_body_0014_uv_map.001",
            "rotation" : [
                0.7070122957229614,
                -0.01156525406986475,
                -0.0115652522072196,
                0.7070121765136719
            ]
        },
        {
            "extensions" : {
                "KHR_lights_punctual" : {
                    "light" : 0
                }
            },
            "name" : "Spot_Orientation",
            "rotation" : [
                -0.7071067690849304,
                0,
                0,
                0.7071067690849304
            ]
        },
        {
            "children" : [
                4
            ],
            "name" : "Spot",
            "rotation" : [
                -0.3705507516860962,
                0,
                0,
                0.9288123250007629
            ],
            "translation" : [
                0.010998900979757309,
                0.39648908376693726,
                0.15408644080162048
            ]
        }
    ],
    "animations" : [
        {
            "channels" : [
                {
                    "sampler" : 0,
                    "target" : {
                        "node" : 2,
                        "path" : "translation"
                    }
                },
                {
                    "sampler" : 1,
                    "target" : {
                        "node" : 2,
                        "path" : "rotation"
                    }
                },
                {
                    "sampler" : 2,
                    "target" : {
                        "node" : 2,
                        "path" : "scale"
                    }
                }
            ],
            "name" : "eye_low_L.001_eyeball_mesh.004Action",
            "samplers" : [
                {
                    "input" : 13,
                    "interpolation" : "STEP",
                    "output" : 14
                },
                {
                    "input" : 13,
                    "interpolation" : "STEP",
                    "output" : 15
                },
                {
                    "input" : 13,
                    "interpolation" : "STEP",
                    "output" : 16
                }
            ]
        },
        {
            "channels" : [
                {
                    "sampler" : 0,
                    "target" : {
                        "node" : 3,
                        "path" : "translation"
                    }
                },
                {
                    "sampler" : 1,
                    "target" : {
                        "node" : 3,
                        "path" : "rotation"
                    }
                },
                {
                    "sampler" : 2,
                    "target" : {
                        "node" : 3,
                        "path" : "scale"
                    }
                }
            ],
            "name" : "man_body_0014_uv_map_man_body_0014_uv_map.001Action",
            "samplers" : [
                {
                    "input" : 17,
                    "interpolation" : "LINEAR",
                    "output" : 18
                },
                {
                    "input" : 17,
                    "interpolation" : "LINEAR",
                    "output" : 19
                },
                {
                    "input" : 17,
                    "interpolation" : "LINEAR",
                    "output" : 20
                }
            ]
        },
        {
            "channels" : [
                {
                    "sampler" : 0,
                    "target" : {
                        "node" : 1,
                        "path" : "translation"
                    }
                },
                {
                    "sampler" : 1,
                    "target" : {
                        "node" : 1,
                        "path" : "rotation"
                    }
                },
                {
                    "sampler" : 2,
                    "target" : {
                        "node" : 1,
                        "path" : "scale"
                    }
                }
            ],
            "name" : "eye_low_L.001_eyeball_mesh.004Action.001",
            "samplers" : [
                {
                    "input" : 21,
                    "interpolation" : "STEP",
                    "output" : 22
                },
                {
                    "input" : 21,
                    "interpolation" : "STEP",
                    "output" : 23
                },
                {
                    "input" : 21,
                    "interpolation" : "STEP",
                    "output" : 24
                }
            ]
        },
        {
            "channels" : [
                {
                    "sampler" : 0,
                    "target" : {
                        "node" : 5,
                        "path" : "translation"
                    }
                }
            ],
            "name" : "SpotAction",
            "samplers" : [
                {
                    "input" : 25,
                    "interpolation" : "LINEAR",
                    "output" : 26
                }
            ]
        }
    ],
    "materials" : [
        {
            "doubleSided" : true,
            "name" : "Material.003",
            "pbrMetallicRoughness" : {
                "baseColorFactor" : [
                    0.800000011920929,
                    0.800000011920929,
                    0.800000011920929,
                    1
                ],
                "metallicFactor" : 0,
                "roughnessFactor" : 0.5
            }
        },
        {
            "doubleSided" : true,
            "name" : "Material.002",
            "pbrMetallicRoughness" : {
                "baseColorFactor" : [
                    0.800000011920929,
                    0.800000011920929,
                    0.800000011920929,
                    1
                ],
                "metallicFactor" : 0,
                "roughnessFactor" : 0.5
            }
        },
        {
            "doubleSided" : true,
            "name" : "Material.004",
            "pbrMetallicRoughness" : {
                "baseColorFactor" : [
                    0.21858733892440796,
                    0.24619367718696594,
                    0.24619367718696594,
                    1
                ],
                "metallicFactor" : 0,
                "roughnessFactor" : 0.5
            }
        }
    ],
    "meshes" : [
        {
            "name" : "eye_low_L.001_eyeball_mesh.002",
            "primitives" : [
                {
                    "attributes" : {
                        "POSITION" : 0,
                        "NORMAL" : 1,
                        "TANGENT" : 2,
                        "TEXCOORD_0" : 3
                    },
                    "indices" : 4,
                    "material" : 0
                }
            ]
        },
        {
            "name" : "eye_low_L.001_eyeball_mesh.004",
            "primitives" : [
                {
                    "attributes" : {
                        "POSITION" : 5,
                        "NORMAL" : 6,
                        "TANGENT" : 7,
                        "TEXCOORD_0" : 8
                    },
                    "indices" : 4,
                    "material" : 1
                }
            ]
        },
        {
            "name" : "man_body_0014_uv_map_man_body_0014_uv_map.001",
            "primitives" : [
                {
                    "attributes" : {
                        "POSITION" : 9,
                        "NORMAL" : 10,
                        "TEXCOORD_0" : 11
                    },
                    "indices" : 12,
                    "material" : 2
                }
            ]
        }
    ],
    "accessors" : [
        {
            "bufferView" : 0,
            "componentType" : 5126,
            "count" : 549,
            "max" : [
                0.04632800072431564,
                0.13005226850509644,
                -0.018251243978738785
            ],
            "min" : [
                0.019951000809669495,
                0.10242226719856262,
                -0.04464024677872658
            ],
            "type" : "VEC3"
        },
        {
            "bufferView" : 1,
            "componentType" : 5126,
            "count" : 549,
            "type" : "VEC3"
        },
        {
            "bufferView" : 2,
            "componentType" : 5126,
            "count" : 549,
            "type" : "VEC4"
        },
        {
            "bufferView" : 3,
            "componentType" : 5126,
            "count" : 549,
            "type" : "VEC2"
        },
        {
            "bufferView" : 4,
            "componentType" : 5123,
            "count" : 2760,
            "type" : "SCALAR"
        },
        {
            "bufferView" : 5,
            "componentType" : 5126,
            "count" : 549,
            "max" : [
                0.04632800072431564,
                0.13005226850509644,
                -0.018251243978738785
            ],
            "min" : [
                0.019951000809669495,
                0.10242226719856262,
                -0.04464024677872658
            ],
            "type" : "VEC3"
        },
        {
            "bufferView" : 6,
            "componentType" : 5126,
            "count" : 549,
            "type" : "VEC3"
        },
        {
            "bufferView" : 7,
            "componentType" : 5126,
            "count" : 549,
            "type" : "VEC4"
        },
        {
            "bufferView" : 8,
            "componentType" : 5126,
            "count" : 549,
            "type" : "VEC2"
        },
        {
            "bufferView" : 9,
            "componentType" : 5126,
            "count" : 6069,
            "max" : [
                0.08304030448198318,
                0.16377723217010498,
                0.0008033514022827148
            ],
            "min" : [
                -0.0936897024512291,
                -0.07082574814558029,
                -0.3142140507698059
            ],
            "type" : "VEC3"
        },
        {
            "bufferView" : 10,
            "componentType" : 5126,
            "count" : 6069,
            "type" : "VEC3"
        },
        {
            "bufferView" : 11,
            "componentType" : 5126,
            "count" : 6069,
            "type" : "VEC2"
        },
        {
            "bufferView" : 12,
            "componentType" : 5123,
            "count" : 35124,
            "type" : "SCALAR"
        },
        {
            "bufferView" : 13,
            "componentType" : 5126,
            "count" : 1,
            "max" : [
                0
            ],
            "min" : [
                0
            ],
            "type" : "SCALAR"
        },
        {
            "bufferView" : 14,
            "componentType" : 5126,
            "count" : 1,
            "type" : "VEC3"
        },
        {
            "bufferView" : 15,
            "componentType" : 5126,
            "count" : 1,
            "type" : "VEC4"
        },
        {
            "bufferView" : 16,
            "componentType" : 5126,
            "count" : 1,
            "type" : "VEC3"
        },
        {
            "bufferView" : 17,
            "componentType" : 5126,
            "count" : 99,
            "max" : [
                10.083333333333334
            ],
            "min" : [
                6
            ],
            "type" : "SCALAR"
        },
        {
            "bufferView" : 18,
            "componentType" : 5126,
            "count" : 99,
            "type" : "VEC3"
        },
        {
            "bufferView" : 19,
            "componentType" : 5126,
            "count" : 99,
            "type" : "VEC4"
        },
        {
            "bufferView" : 20,
            "componentType" : 5126,
            "count" : 99,
            "type" : "VEC3"
        },
        {
            "bufferView" : 21,
            "componentType" : 5126,
            "count" : 1,
            "max" : [
                0.08333333333333333
            ],
            "min" : [
                0.08333333333333333
            ],
            "type" : "SCALAR"
        },
        {
            "bufferView" : 22,
            "componentType" : 5126,
            "count" : 1,
            "type" : "VEC3"
        },
        {
            "bufferView" : 23,
            "componentType" : 5126,
            "count" : 1,
            "type" : "VEC4"
        },
        {
            "bufferView" : 24,
            "componentType" : 5126,
            "count" : 1,
            "type" : "VEC3"
        },
        {
            "bufferView" : 25,
            "componentType" : 5126,
            "count" : 153,
            "max" : [
                6.416666666666667
            ],
            "min" : [
                0.08333333333333333
            ],
            "type" : "SCALAR"
        },
        {
            "bufferView" : 26,
            "componentType" : 5126,
            "count" : 153,
            "type" : "VEC3"
        }
    ],
    "bufferViews" : [
        {
            "buffer" : 0,
            "byteLength" : 6588,
            "byteOffset" : 0
        },
        {
            "buffer" : 0,
            "byteLength" : 6588,
            "byteOffset" : 6588
        },
        {
            "buffer" : 0,
            "byteLength" : 8784,
            "byteOffset" : 13176
        },
        {
            "buffer" : 0,
            "byteLength" : 4392,
            "byteOffset" : 21960
        },
        {
            "buffer" : 0,
            "byteLength" : 5520,
            "byteOffset" : 26352
        },
        {
            "buffer" : 0,
            "byteLength" : 6588,
            "byteOffset" : 31872
        },
        {
            "buffer" : 0,
            "byteLength" : 6588,
            "byteOffset" : 38460
        },
        {
            "buffer" : 0,
            "byteLength" : 8784,
            "byteOffset" : 45048
        },
        {
            "buffer" : 0,
            "byteLength" : 4392,
            "byteOffset" : 53832
        },
        {
            "buffer" : 0,
            "byteLength" : 72828,
            "byteOffset" : 58224
        },
        {
            "buffer" : 0,
            "byteLength" : 72828,
            "byteOffset" : 131052
        },
        {
            "buffer" : 0,
            "byteLength" : 48552,
            "byteOffset" : 203880
        },
        {
            "buffer" : 0,
            "byteLength" : 70248,
            "byteOffset" : 252432
        },
        {
            "buffer" : 0,
            "byteLength" : 4,
            "byteOffset" : 322680
        },
        {
            "buffer" : 0,
            "byteLength" : 12,
            "byteOffset" : 322684
        },
        {
            "buffer" : 0,
            "byteLength" : 16,
            "byteOffset" : 322696
        },
        {
            "buffer" : 0,
            "byteLength" : 12,
            "byteOffset" : 322712
        },
        {
            "buffer" : 0,
            "byteLength" : 396,
            "byteOffset" : 322724
        },
        {
            "buffer" : 0,
            "byteLength" : 1188,
            "byteOffset" : 323120
        },
        {
            "buffer" : 0,
            "byteLength" : 1584,
            "byteOffset" : 324308
        },
        {
            "buffer" : 0,
            "byteLength" : 1188,
            "byteOffset" : 325892
        },
        {
            "buffer" : 0,
            "byteLength" : 4,
            "byteOffset" : 327080
        },
        {
            "buffer" : 0,
            "byteLength" : 12,
            "byteOffset" : 327084
        },
        {
            "buffer" : 0,
            "byteLength" : 16,
            "byteOffset" : 327096
        },
        {
            "buffer" : 0,
            "byteLength" : 12,
            "byteOffset" : 327112
        },
        {
            "buffer" : 0,
            "byteLength" : 612,
            "byteOffset" : 327124
        },
        {
            "buffer" : 0,
            "byteLength" : 1836,
            "byteOffset" : 327736
        }
    ],
    "buffers" : [
        {
            "byteLength" : 329572,
            "uri" : "data:application/octet-stream;base64,"
        }
    ]
}
