<svg width="743" height="744" viewBox="0 0 743 744" fill="none" xmlns="http://www.w3.org/2000/svg">
    <path opacity="0.4" d="M214.801 0.900391L0.800781 529.1L529.001 743.1L743.001 214.9L214.801 0.900391ZM582.401 277.1L369.301 156.1L229.301 13.5004L730.601 216.6L582.401 277.1ZM459.001 491.2L249.601 372.3L368.501 162.9L577.901 281.8L459.001 491.2ZM363.401 159.1L243.001 371.2L11.4009 519.4L217.601 10.6004L363.401 159.1ZM245.401 377.1L457.501 497.5L522.501 733.7L11.6011 526.7L245.401 377.1ZM463.501 495.9L584.301 283.1L733.101 222.4L527.701 729.3L463.501 495.9Z" fill="black"/>
</svg>
