<svg width="33" height="33" viewBox="0 0 33 33" fill="none" xmlns="http://www.w3.org/2000/svg">
    <path d="M0.297008 0L0 0.198032V26.202L0.297008 26.4H13.2V0H0.297008ZM12.474 0.33L6.6 4.55402L0.725984 0.33H12.474ZM0.33 0.462048L6.435 4.88402V22.209L0.33 26.004V0.462048ZM0.825 26.07L6.6 22.473L12.375 26.07H0.825ZM12.87 26.004L6.765 22.209V4.88402L12.87 0.462048V26.004ZM33 6.6H20.097L19.8 6.79803V32.8021L20.097 33H33V6.6ZM32.274 6.93L26.4 11.154L20.526 6.93H32.274ZM20.13 7.06205L26.235 11.484V28.809L20.13 32.604V7.06205ZM20.625 32.67L26.4 29.073L32.175 32.67H20.625ZM32.67 32.604L26.565 28.809V11.484L32.67 7.06205V32.604Z" fill="white"/>
</svg>